<svg width="400" height="214" viewBox="0 0 400 214" fill="none" xmlns="http://www.w3.org/2000/svg">
<g clip-path="url(#clip0_498_5)">
<path d="M200.156 -0.140625L210.72 33.246L230.686 1.11337L231.6 34.9714L260.5 4.84596L251.743 38.3819L288.9 10.9697L270.677 43.3974L315.22 19.3409L287.958 49.9003L338.843 29.7636L303.181 57.7384L359.215 41.9933L315.989 66.7278L375.859 55.7434L326.082 76.6578L388.384 70.6916L333.223 87.2958L396.498 86.4875L337.246 98.3923L400.009 102.761L338.055 109.687L398.837 119.131L335.632 120.916L393.007 135.212L330.034 131.815L382.657 150.63L321.391 142.129L368.029 165.021L309.907 151.617L349.467 178.049L295.85 160.055L327.405 189.409L279.55 167.247L302.36 198.833L261.39 173.023L274.92 206.102L241.794 177.249L245.727 211.045L221.222 179.824L215.466 213.545L200.156 180.689L184.846 213.545L179.091 179.824L154.586 211.045L158.519 177.249L125.393 206.102L138.923 173.023L97.9525 198.833L120.762 167.247L72.9078 189.409L104.463 160.055L50.8456 178.049L90.4058 151.617L32.2832 165.021L78.9216 142.129L17.6555 150.63L70.2789 131.815L7.30556 135.212L64.6805 120.916L1.47583 119.131L62.2575 109.687L0.303009 102.761L63.0668 98.3923L3.81459 86.4875L67.0893 87.2958L11.9282 70.6916L74.2308 76.6578L24.4538 55.7434L84.3238 66.7278L41.0977 41.9933L97.1319 57.7384L61.4698 29.7636L112.355 49.9003L85.0925 19.3409L129.636 43.3974L111.412 10.9697L148.569 38.3819L139.812 4.84596L168.712 34.9714L169.626 1.11337L189.592 33.246L200.156 -0.140625Z" fill="#FF0000"/>
<path d="M106.501 95.3452V91.8652L113.341 87.4852V87.1252H101.461V84.7852H115.501V88.6252L108.661 93.0052V93.3652H109.861C110.661 93.3652 111.431 93.4952 112.171 93.7552C112.911 94.0152 113.561 94.3952 114.121 94.8952C114.701 95.3952 115.161 96.0152 115.501 96.7552C115.861 97.4752 116.041 98.3152 116.041 99.2752V99.8152C116.041 100.715 115.861 101.555 115.501 102.335C115.141 103.115 114.641 103.795 114.001 104.375C113.361 104.935 112.601 105.385 111.721 105.725C110.861 106.045 109.921 106.205 108.901 106.205C107.721 106.205 106.661 106.025 105.721 105.665C104.781 105.305 103.981 104.815 103.321 104.195C102.661 103.555 102.151 102.815 101.791 101.975C101.451 101.115 101.281 100.205 101.281 99.2452V97.6252H103.801V99.0652C103.801 99.8252 103.921 100.505 104.161 101.105C104.421 101.685 104.771 102.185 105.211 102.605C105.671 103.005 106.211 103.315 106.831 103.535C107.451 103.755 108.121 103.865 108.841 103.865C109.501 103.865 110.111 103.755 110.671 103.535C111.251 103.315 111.751 103.015 112.171 102.635C112.591 102.235 112.921 101.775 113.161 101.255C113.401 100.715 113.521 100.145 113.521 99.5452V99.3652C113.521 98.1052 113.121 97.1252 112.321 96.4252C111.521 95.7052 110.521 95.3452 109.321 95.3452H106.501ZM119.56 92.9452C119.56 90.2252 120.21 88.1152 121.51 86.6152C122.81 85.1152 124.62 84.3652 126.94 84.3652C129.26 84.3652 131.07 85.1152 132.37 86.6152C133.67 88.1152 134.32 90.2252 134.32 92.9452V97.6252C134.32 100.425 133.67 102.555 132.37 104.015C131.07 105.475 129.26 106.205 126.94 106.205C124.62 106.205 122.81 105.475 121.51 104.015C120.21 102.555 119.56 100.425 119.56 97.6252V92.9452ZM126.94 103.925C128.56 103.925 129.77 103.365 130.57 102.245C131.39 101.105 131.8 99.5052 131.8 97.4452V93.1252C131.8 92.1652 131.7 91.2952 131.5 90.5152C131.3 89.7152 130.99 89.0352 130.57 88.4752C130.17 87.8952 129.66 87.4452 129.04 87.1252C128.44 86.8052 127.74 86.6452 126.94 86.6452C126.12 86.6452 125.41 86.8052 124.81 87.1252C124.21 87.4452 123.7 87.8952 123.28 88.4752C122.88 89.0352 122.58 89.7152 122.38 90.5152C122.18 91.2952 122.08 92.1652 122.08 93.1252V97.4452C122.08 99.5052 122.48 101.105 123.28 102.245C124.1 103.365 125.32 103.925 126.94 103.925ZM125.02 95.2852C125.02 94.7652 125.21 94.3152 125.59 93.9352C125.97 93.5552 126.42 93.3652 126.94 93.3652C127.46 93.3652 127.91 93.5552 128.29 93.9352C128.67 94.3152 128.86 94.7652 128.86 95.2852C128.86 95.8052 128.67 96.2552 128.29 96.6352C127.91 97.0152 127.46 97.2052 126.94 97.2052C126.42 97.2052 125.97 97.0152 125.59 96.6352C125.21 96.2552 125.02 95.8052 125.02 95.2852ZM146.509 89.1052C146.509 89.8252 146.389 90.4652 146.149 91.0252C145.909 91.5652 145.579 92.0352 145.159 92.4352C144.759 92.8152 144.289 93.1052 143.749 93.3052C143.229 93.5052 142.679 93.6052 142.099 93.6052C141.519 93.6052 140.959 93.5052 140.419 93.3052C139.899 93.1052 139.429 92.8152 139.009 92.4352C138.609 92.0352 138.289 91.5652 138.049 91.0252C137.809 90.4652 137.689 89.8252 137.689 89.1052C137.689 88.3852 137.809 87.7552 138.049 87.2152C138.289 86.6552 138.609 86.1852 139.009 85.8052C139.429 85.4052 139.899 85.1052 140.419 84.9052C140.959 84.7052 141.519 84.6052 142.099 84.6052C142.679 84.6052 143.229 84.7052 143.749 84.9052C144.289 85.1052 144.759 85.4052 145.159 85.8052C145.579 86.1852 145.909 86.6552 146.149 87.2152C146.389 87.7552 146.509 88.3852 146.509 89.1052ZM142.099 91.9852C142.879 91.9852 143.509 91.7252 143.989 91.2052C144.469 90.6652 144.709 89.9652 144.709 89.1052C144.709 88.2452 144.469 87.5552 143.989 87.0352C143.509 86.4952 142.879 86.2252 142.099 86.2252C141.319 86.2252 140.689 86.4952 140.209 87.0352C139.729 87.5552 139.489 88.2452 139.489 89.1052C139.489 90.0652 139.729 90.7852 140.209 91.2652C140.689 91.7452 141.319 91.9852 142.099 91.9852ZM152.959 101.465C152.959 102.185 152.839 102.825 152.599 103.385C152.359 103.925 152.029 104.395 151.609 104.795C151.209 105.175 150.739 105.465 150.199 105.665C149.679 105.865 149.129 105.965 148.549 105.965C147.969 105.965 147.409 105.865 146.869 105.665C146.349 105.465 145.879 105.175 145.459 104.795C145.059 104.395 144.739 103.925 144.499 103.385C144.259 102.825 144.139 102.185 144.139 101.465C144.139 100.745 144.259 100.115 144.499 99.5752C144.739 99.0152 145.059 98.5452 145.459 98.1652C145.879 97.7652 146.349 97.4652 146.869 97.2652C147.409 97.0652 147.969 96.9652 148.549 96.9652C149.129 96.9652 149.679 97.0652 150.199 97.2652C150.739 97.4652 151.209 97.7652 151.609 98.1652C152.029 98.5452 152.359 99.0152 152.599 99.5752C152.839 100.115 152.959 100.745 152.959 101.465ZM148.549 104.345C149.329 104.345 149.959 104.085 150.439 103.565C150.919 103.025 151.159 102.325 151.159 101.465C151.159 100.605 150.919 99.9152 150.439 99.3952C149.959 98.8552 149.329 98.5852 148.549 98.5852C147.769 98.5852 147.139 98.8552 146.659 99.3952C146.179 99.9152 145.939 100.605 145.939 101.465C145.939 102.425 146.179 103.145 146.659 103.625C147.139 104.105 147.769 104.345 148.549 104.345ZM152.059 90.9652L152.779 92.3452L138.589 99.5752L137.869 98.1952L152.059 90.9652ZM178.568 94.7452C178.568 95.4652 178.868 96.0152 179.468 96.3952C180.088 96.7752 181.208 97.0252 182.828 97.1452C184.568 97.2852 185.888 97.7052 186.788 98.4052C187.708 99.0852 188.168 100.085 188.168 101.405V101.585C188.168 102.305 188.018 102.955 187.718 103.535C187.438 104.095 187.038 104.575 186.518 104.975C186.018 105.375 185.398 105.675 184.658 105.875C183.938 106.095 183.148 106.205 182.288 106.205C181.128 106.205 180.128 106.055 179.288 105.755C178.468 105.435 177.778 105.025 177.218 104.525C176.678 104.005 176.268 103.425 175.988 102.785C175.708 102.125 175.548 101.465 175.508 100.805L177.728 100.265C177.828 101.405 178.268 102.325 179.048 103.025C179.828 103.705 180.868 104.045 182.168 104.045C183.268 104.045 184.148 103.835 184.808 103.415C185.488 102.975 185.828 102.365 185.828 101.585C185.828 100.745 185.498 100.145 184.838 99.7852C184.178 99.4252 183.108 99.1952 181.628 99.0952C179.908 98.9752 178.588 98.5752 177.668 97.8952C176.748 97.2152 176.288 96.2252 176.288 94.9252V94.7452C176.288 94.0452 176.438 93.4352 176.738 92.9152C177.038 92.3752 177.438 91.9252 177.938 91.5652C178.458 91.2052 179.038 90.9352 179.678 90.7552C180.318 90.5752 180.988 90.4852 181.688 90.4852C182.668 90.4852 183.528 90.6252 184.268 90.9052C185.008 91.1652 185.628 91.5152 186.128 91.9552C186.628 92.3752 187.008 92.8652 187.268 93.4252C187.548 93.9852 187.728 94.5452 187.808 95.1052L185.588 95.6452C185.488 94.6852 185.098 93.9352 184.418 93.3952C183.758 92.8552 182.888 92.5852 181.808 92.5852C181.388 92.5852 180.978 92.6352 180.578 92.7352C180.198 92.8152 179.858 92.9452 179.558 93.1252C179.258 93.3052 179.018 93.5352 178.838 93.8152C178.658 94.0752 178.568 94.3852 178.568 94.7452ZM193.337 90.9052H198.017V84.7852H200.357V90.9052H206.117V93.0652H200.357V102.725C200.357 103.325 200.627 103.625 201.167 103.625H205.397V105.785H200.327C199.647 105.785 199.087 105.565 198.647 105.125C198.227 104.685 198.017 104.125 198.017 103.445V93.0652H193.337V90.9052ZM222.836 90.9052H225.176V105.785H222.836V103.085H222.476C221.996 104.045 221.366 104.805 220.586 105.365C219.806 105.925 218.816 106.205 217.616 106.205C216.796 106.205 216.036 106.065 215.336 105.785C214.656 105.525 214.066 105.125 213.566 104.585C213.086 104.045 212.706 103.375 212.426 102.575C212.166 101.775 212.036 100.845 212.036 99.7852V90.9052H214.376V99.4852C214.376 101.045 214.696 102.185 215.336 102.905C215.976 103.625 216.956 103.985 218.276 103.985C219.696 103.985 220.806 103.505 221.606 102.545C222.426 101.565 222.836 100.265 222.836 98.6452V90.9052ZM242.105 103.505H241.745C241.505 103.965 241.195 104.365 240.815 104.705C240.455 105.045 240.055 105.325 239.615 105.545C239.195 105.765 238.745 105.925 238.265 106.025C237.785 106.145 237.325 106.205 236.885 106.205C235.885 106.205 234.955 106.035 234.095 105.695C233.235 105.355 232.475 104.865 231.815 104.225C231.175 103.585 230.665 102.795 230.285 101.855C229.925 100.895 229.745 99.8052 229.745 98.5852V98.1052C229.745 96.9052 229.935 95.8352 230.315 94.8952C230.695 93.9352 231.205 93.1352 231.845 92.4952C232.485 91.8352 233.235 91.3352 234.095 90.9952C234.955 90.6552 235.865 90.4852 236.825 90.4852C237.845 90.4852 238.795 90.7152 239.675 91.1752C240.575 91.6152 241.265 92.3052 241.745 93.2452H242.105V84.7852H244.445V105.785H242.105V103.505ZM237.125 103.985C237.825 103.985 238.475 103.855 239.075 103.595C239.675 103.335 240.195 102.965 240.635 102.485C241.095 102.005 241.455 101.435 241.715 100.775C241.975 100.095 242.105 99.3452 242.105 98.5252V98.1652C242.105 97.3652 241.975 96.6352 241.715 95.9752C241.455 95.2952 241.095 94.7152 240.635 94.2352C240.195 93.7552 239.665 93.3852 239.045 93.1252C238.445 92.8452 237.805 92.7052 237.125 92.7052C236.425 92.7052 235.765 92.8352 235.145 93.0952C234.545 93.3552 234.015 93.7252 233.555 94.2052C233.115 94.6852 232.765 95.2552 232.505 95.9152C232.265 96.5752 232.145 97.3052 232.145 98.1052V98.5852C232.145 99.4252 232.265 100.175 232.505 100.835C232.765 101.495 233.115 102.065 233.555 102.545C234.015 103.005 234.545 103.365 235.145 103.625C235.745 103.865 236.405 103.985 237.125 103.985ZM250.664 99.0652C250.724 100.545 251.184 101.735 252.044 102.635C252.904 103.535 254.104 103.985 255.644 103.985C256.344 103.985 256.954 103.905 257.474 103.745C257.994 103.585 258.434 103.365 258.794 103.085C259.174 102.805 259.474 102.485 259.694 102.125C259.934 101.745 260.124 101.345 260.264 100.925L262.484 101.525C262.064 102.905 261.284 104.035 260.144 104.915C259.024 105.775 257.504 106.205 255.584 106.205C254.524 106.205 253.544 106.025 252.644 105.665C251.764 105.285 251.004 104.755 250.364 104.075C249.724 103.395 249.224 102.585 248.864 101.645C248.504 100.705 248.324 99.6652 248.324 98.5252V97.8052C248.324 96.7652 248.504 95.7952 248.864 94.8952C249.244 93.9952 249.764 93.2252 250.424 92.5852C251.084 91.9252 251.854 91.4152 252.734 91.0552C253.634 90.6752 254.604 90.4852 255.644 90.4852C256.864 90.4852 257.914 90.7152 258.794 91.1752C259.694 91.6152 260.424 92.1652 260.984 92.8252C261.564 93.4852 261.984 94.2052 262.244 94.9852C262.524 95.7652 262.664 96.4852 262.664 97.1452V99.0652L250.664 99.0652ZM255.644 92.7052C254.984 92.7052 254.364 92.8152 253.784 93.0352C253.224 93.2352 252.724 93.5252 252.284 93.9052C251.864 94.2852 251.514 94.7352 251.234 95.2552C250.974 95.7552 250.804 96.3052 250.724 96.9052L260.324 96.9052C260.284 96.2652 260.124 95.6852 259.844 95.1652C259.584 94.6452 259.234 94.2052 258.794 93.8452C258.374 93.4852 257.884 93.2052 257.324 93.0052C256.784 92.8052 256.224 92.7052 255.644 92.7052ZM269.663 105.785H267.323V90.9052H269.663V93.4252H270.023C270.943 91.4652 272.543 90.4852 274.823 90.4852C276.543 90.4852 277.913 91.0252 278.933 92.1052C279.953 93.1652 280.463 94.7652 280.463 96.9052V105.785H278.123V97.3852C278.123 95.8252 277.773 94.6552 277.073 93.8752C276.373 93.0952 275.423 92.7052 274.223 92.7052C272.803 92.7052 271.683 93.1952 270.863 94.1752C270.063 95.1352 269.663 96.4252 269.663 98.0452V105.785ZM285.182 90.9052H289.862V84.7852H292.202V90.9052H297.962V93.0652H292.202V102.725C292.202 103.325 292.472 103.625 293.012 103.625H297.242V105.785H292.172C291.492 105.785 290.932 105.565 290.492 105.125C290.072 104.685 289.862 104.125 289.862 103.445V93.0652H285.182V90.9052ZM141.075 131.505H140.715C140.475 131.965 140.165 132.365 139.785 132.705C139.425 133.045 139.025 133.325 138.585 133.545C138.165 133.765 137.715 133.925 137.235 134.025C136.755 134.145 136.295 134.205 135.855 134.205C134.855 134.205 133.925 134.035 133.065 133.695C132.205 133.355 131.445 132.865 130.785 132.225C130.145 131.585 129.635 130.795 129.255 129.855C128.895 128.895 128.715 127.805 128.715 126.585V126.105C128.715 124.905 128.905 123.835 129.285 122.895C129.665 121.935 130.175 121.135 130.815 120.495C131.455 119.835 132.205 119.335 133.065 118.995C133.925 118.655 134.835 118.485 135.795 118.485C136.815 118.485 137.765 118.715 138.645 119.175C139.545 119.615 140.235 120.305 140.715 121.245H141.075V112.785H143.415V133.785H141.075V131.505ZM136.095 131.985C136.795 131.985 137.445 131.855 138.045 131.595C138.645 131.335 139.165 130.965 139.605 130.485C140.065 130.005 140.425 129.435 140.685 128.775C140.945 128.095 141.075 127.345 141.075 126.525V126.165C141.075 125.365 140.945 124.635 140.685 123.975C140.425 123.295 140.065 122.715 139.605 122.235C139.165 121.755 138.635 121.385 138.015 121.125C137.415 120.845 136.775 120.705 136.095 120.705C135.395 120.705 134.735 120.835 134.115 121.095C133.515 121.355 132.985 121.725 132.525 122.205C132.085 122.685 131.735 123.255 131.475 123.915C131.235 124.575 131.115 125.305 131.115 126.105V126.585C131.115 127.425 131.235 128.175 131.475 128.835C131.735 129.495 132.085 130.065 132.525 130.545C132.985 131.005 133.515 131.365 134.115 131.625C134.715 131.865 135.375 131.985 136.095 131.985ZM152.544 114.465C152.544 113.885 152.744 113.395 153.144 112.995C153.564 112.575 154.064 112.365 154.644 112.365C155.224 112.365 155.714 112.575 156.114 112.995C156.534 113.395 156.744 113.885 156.744 114.465C156.744 115.045 156.534 115.545 156.114 115.965C155.714 116.365 155.224 116.565 154.644 116.565C154.064 116.565 153.564 116.365 153.144 115.965C152.744 115.545 152.544 115.045 152.544 114.465ZM148.284 131.625H153.504V121.065H148.824V118.905H155.844V131.625H160.704V133.785H148.284V131.625ZM169.383 122.745C169.383 123.465 169.683 124.015 170.283 124.395C170.903 124.775 172.023 125.025 173.643 125.145C175.383 125.285 176.703 125.705 177.603 126.405C178.523 127.085 178.983 128.085 178.983 129.405V129.585C178.983 130.305 178.833 130.955 178.533 131.535C178.253 132.095 177.853 132.575 177.333 132.975C176.833 133.375 176.213 133.675 175.473 133.875C174.753 134.095 173.963 134.205 173.103 134.205C171.943 134.205 170.943 134.055 170.103 133.755C169.283 133.435 168.593 133.025 168.033 132.525C167.493 132.005 167.083 131.425 166.803 130.785C166.523 130.125 166.363 129.465 166.323 128.805L168.543 128.265C168.643 129.405 169.083 130.325 169.863 131.025C170.643 131.705 171.683 132.045 172.983 132.045C174.083 132.045 174.963 131.835 175.623 131.415C176.303 130.975 176.643 130.365 176.643 129.585C176.643 128.745 176.313 128.145 175.653 127.785C174.993 127.425 173.923 127.195 172.443 127.095C170.723 126.975 169.403 126.575 168.483 125.895C167.563 125.215 167.103 124.225 167.103 122.925V122.745C167.103 122.045 167.253 121.435 167.553 120.915C167.853 120.375 168.253 119.925 168.753 119.565C169.273 119.205 169.853 118.935 170.493 118.755C171.133 118.575 171.803 118.485 172.503 118.485C173.483 118.485 174.343 118.625 175.083 118.905C175.823 119.165 176.443 119.515 176.943 119.955C177.443 120.375 177.823 120.865 178.083 121.425C178.363 121.985 178.543 122.545 178.623 123.105L176.403 123.645C176.303 122.685 175.913 121.935 175.233 121.395C174.573 120.855 173.703 120.585 172.623 120.585C172.203 120.585 171.793 120.635 171.393 120.735C171.013 120.815 170.673 120.945 170.373 121.125C170.073 121.305 169.833 121.535 169.653 121.815C169.473 122.075 169.383 122.385 169.383 122.745ZM198.582 128.505C198.422 129.325 198.142 130.085 197.742 130.785C197.362 131.485 196.872 132.095 196.272 132.615C195.672 133.115 194.972 133.505 194.172 133.785C193.372 134.065 192.482 134.205 191.502 134.205C190.462 134.205 189.472 134.035 188.532 133.695C187.612 133.355 186.802 132.865 186.102 132.225C185.402 131.565 184.842 130.765 184.422 129.825C184.022 128.885 183.822 127.805 183.822 126.585V126.225C183.822 125.025 184.022 123.945 184.422 122.985C184.842 122.025 185.402 121.215 186.102 120.555C186.802 119.895 187.612 119.385 188.532 119.025C189.472 118.665 190.462 118.485 191.502 118.485C192.442 118.485 193.312 118.625 194.112 118.905C194.912 119.185 195.612 119.585 196.212 120.105C196.832 120.605 197.332 121.205 197.712 121.905C198.112 122.605 198.382 123.365 198.522 124.185L196.182 124.725C196.122 124.205 195.972 123.705 195.732 123.225C195.512 122.725 195.202 122.295 194.802 121.935C194.422 121.555 193.952 121.255 193.392 121.035C192.832 120.815 192.182 120.705 191.442 120.705C190.722 120.705 190.042 120.845 189.402 121.125C188.782 121.385 188.232 121.765 187.752 122.265C187.272 122.745 186.892 123.325 186.612 124.005C186.352 124.685 186.222 125.425 186.222 126.225V126.585C186.222 127.425 186.352 128.185 186.612 128.865C186.892 129.525 187.272 130.085 187.752 130.545C188.232 131.005 188.792 131.365 189.432 131.625C190.072 131.865 190.762 131.985 191.502 131.985C192.242 131.985 192.882 131.875 193.422 131.655C193.982 131.415 194.452 131.115 194.832 130.755C195.232 130.375 195.542 129.945 195.762 129.465C196.002 128.985 196.162 128.485 196.242 127.965L198.582 128.505ZM217.071 126.525C217.071 127.765 216.861 128.865 216.441 129.825C216.041 130.765 215.501 131.565 214.821 132.225C214.141 132.865 213.341 133.355 212.421 133.695C211.521 134.035 210.581 134.205 209.601 134.205C208.601 134.205 207.651 134.035 206.751 133.695C205.851 133.355 205.061 132.865 204.381 132.225C203.701 131.565 203.151 130.765 202.731 129.825C202.331 128.865 202.131 127.765 202.131 126.525V126.165C202.131 124.945 202.331 123.865 202.731 122.925C203.151 121.965 203.701 121.155 204.381 120.495C205.081 119.835 205.881 119.335 206.781 118.995C207.681 118.655 208.621 118.485 209.601 118.485C210.581 118.485 211.521 118.655 212.421 118.995C213.321 119.335 214.111 119.835 214.791 120.495C215.491 121.155 216.041 121.965 216.441 122.925C216.861 123.865 217.071 124.945 217.071 126.165V126.525ZM209.601 131.985C210.321 131.985 210.981 131.865 211.581 131.625C212.201 131.365 212.741 130.995 213.201 130.515C213.661 130.035 214.021 129.465 214.281 128.805C214.541 128.125 214.671 127.365 214.671 126.525V126.165C214.671 125.365 214.541 124.635 214.281 123.975C214.021 123.295 213.661 122.715 213.201 122.235C212.741 121.755 212.201 121.385 211.581 121.125C210.961 120.845 210.301 120.705 209.601 120.705C208.901 120.705 208.241 120.845 207.621 121.125C207.001 121.385 206.461 121.755 206.001 122.235C205.541 122.715 205.181 123.295 204.921 123.975C204.661 124.635 204.531 125.365 204.531 126.165V126.525C204.531 127.365 204.661 128.125 204.921 128.805C205.181 129.465 205.541 130.035 206.001 130.515C206.461 130.995 206.991 131.365 207.591 131.625C208.211 131.865 208.881 131.985 209.601 131.985ZM232.02 118.905H234.36V133.785H232.02V131.085H231.66C231.18 132.045 230.55 132.805 229.77 133.365C228.99 133.925 228 134.205 226.8 134.205C225.98 134.205 225.22 134.065 224.52 133.785C223.84 133.525 223.25 133.125 222.75 132.585C222.27 132.045 221.89 131.375 221.61 130.575C221.35 129.775 221.22 128.845 221.22 127.785V118.905H223.56V127.485C223.56 129.045 223.88 130.185 224.52 130.905C225.16 131.625 226.14 131.985 227.46 131.985C228.88 131.985 229.99 131.505 230.79 130.545C231.61 129.565 232.02 128.265 232.02 126.645V118.905ZM242.11 133.785H239.77V118.905H242.11V121.425H242.47C243.39 119.465 244.99 118.485 247.27 118.485C248.99 118.485 250.36 119.025 251.38 120.105C252.4 121.165 252.91 122.765 252.91 124.905V133.785H250.57V125.385C250.57 123.825 250.22 122.655 249.52 121.875C248.82 121.095 247.87 120.705 246.67 120.705C245.25 120.705 244.13 121.195 243.31 122.175C242.51 123.135 242.11 124.425 242.11 126.045V133.785ZM257.629 118.905H262.309V112.785H264.649V118.905H270.409V121.065H264.649V130.725C264.649 131.325 264.919 131.625 265.459 131.625H269.689V133.785H264.619C263.939 133.785 263.379 133.565 262.939 133.125C262.519 132.685 262.309 132.125 262.309 131.445V121.065H257.629V118.905ZM280.978 132.105C280.978 131.525 281.178 131.035 281.578 130.635C281.998 130.215 282.498 130.005 283.078 130.005C283.658 130.005 284.148 130.215 284.548 130.635C284.968 131.035 285.178 131.525 285.178 132.105C285.178 132.685 284.968 133.185 284.548 133.605C284.148 134.005 283.658 134.205 283.078 134.205C282.498 134.205 281.998 134.005 281.578 133.605C281.178 133.185 280.978 132.685 280.978 132.105ZM284.278 112.785V128.205H281.878V112.785H284.278Z" fill="black"/>
</g>
<defs>
<clipPath id="clip0_498_5">
<rect width="400" height="214" fill="white"/>
</clipPath>
</defs>
</svg>
